<?xml version="1.0" standalone="no"?><!DOCTYPE svg PUBLIC "-//W3C//DTD SVG 1.1//EN" "http://www.w3.org/Graphics/SVG/1.1/DTD/svg11.dtd"><svg t="1643028381985" class="icon" viewBox="0 0 1024 1024" version="1.1" xmlns="http://www.w3.org/2000/svg" p-id="17199" data-spm-anchor-id="a313x.7781069.0.i13" xmlns:xlink="http://www.w3.org/1999/xlink" width="200" height="200"><defs><style type="text/css"></style></defs><path d="M508.56 216.32c-100.8 0-182.8 82.01-182.8 182.8s82.01 182.8 182.8 182.8 182.8-82.01 182.8-182.8-82.01-182.8-182.8-182.8z m0 307.88c-68.97 0-125.08-56.11-125.08-125.08s56.11-125.08 125.08-125.08 125.08 56.11 125.08 125.08c-0.01 68.97-56.12 125.08-125.08 125.08z" fill="#99cc66" p-id="17200" data-spm-anchor-id="a313x.7781069.0.i11" class=""></path><path d="M901.86 837.31L796.84 574.75l-1.43 0.57c31.62-51.29 49.89-111.65 49.89-176.2 0-185.68-151.07-336.75-336.75-336.75S171.81 213.44 171.81 399.12c0 63.86 17.87 123.63 48.87 174.56L114.84 838.32c-7.33 20.6-4.19 43.56 8.42 61.43 12.59 17.87 33.17 28.54 55.02 28.54h187.69c28.39 0 53.89-17.96 62.59-42.6l67.23-150.09c4.24 0.16 8.49 0.27 12.77 0.27 4.28 0 8.53-0.11 12.77-0.27l66.36 147.99c9.55 26.74 35.05 44.71 63.44 44.71h187.69c21.85 0 42.43-10.67 55.02-28.53 12.61-17.87 15.75-40.85 8.02-62.46zM375.02 864.2c-1.35 3.81-5 6.37-9.06 6.37H178.28c-4.32 0-6.78-2.56-7.85-4.08-1.07-1.52-2.67-4.7-1.6-7.76l92.5-231.23c45.85 49.6 106.39 85.41 174.63 100.47L375.02 864.2zM229.54 399.12c0-153.85 125.17-279.02 279.02-279.02s279.02 125.17 279.02 279.02S662.4 678.14 508.56 678.14 229.54 552.97 229.54 399.12z m617.13 467.37c-1.07 1.52-3.51 4.08-7.85 4.08H651.13c-4.06 0-7.7-2.56-9.9-8.47l-60.06-134.13C649.4 712.9 709.93 677.1 755.78 627.5l92.1 230.21c1.46 4.08-0.14 7.26-1.21 8.78z" fill="#99cc66" p-id="17201" data-spm-anchor-id="a313x.7781069.0.i12" class=""></path></svg>