<?xml version="1.0" standalone="no"?><!DOCTYPE svg PUBLIC "-//W3C//DTD SVG 1.1//EN" "http://www.w3.org/Graphics/SVG/1.1/DTD/svg11.dtd"><svg t="1643075879237" class="icon" viewBox="0 0 1024 1024" version="1.1" xmlns="http://www.w3.org/2000/svg" p-id="2564" xmlns:xlink="http://www.w3.org/1999/xlink" width="200" height="200"><defs><style type="text/css"></style></defs><path d="M200.22857143 162.43809524h526.17142857v211.2H200.22857143V162.43809524z" fill="#BA0C00" p-id="2565"></path><path d="M203.88571429 175.23809524l494.62857142-1.37142857v252.34285714h64l-2.74285714-227.65714285h0.45714286l-0.91428572-86.85714286h-251.42857142L139.88571429 111.23809524v711.77142857H368v-64H203.88571429z" fill="#000000" p-id="2566"></path><path d="M584.68571429 337.98095238H317.71428571c-24.68571429 0-44.34285714 16-44.34285714 35.65714286s20.11428571 35.65714286 44.34285714 35.65714286h266.97142858c24.68571429 0 44.34285714-16 44.34285714-35.65714286s-19.65714286-35.65714286-44.34285714-35.65714286zM317.71428571 582.55238096h89.14285715c24.68571429 0 44.34285714-16 44.34285714-35.65714286s-20.11428571-35.65714286-44.34285714-35.65714286H317.71428571c-24.68571429 0-44.34285714 16-44.34285714 35.65714286s19.65714286 35.65714286 44.34285714 35.65714286z" fill="#000000" p-id="2567"></path><path d="M791.31428571 634.20952381c-5.02857143 0.45714286-9.14285714 8.68571429-11.42857142 8.68571429-1.37142857 0-2.28571429-2.28571429-2.28571429-3.65714286-32.91428571 24.22857143-45.71428571 53.94285714-44.34285714 74.51428572 0 3.65714286 2.28571429 15.08571429 7.77142857 14.17142857 5.94285714-0.45714286 17.37142857-10.05714286 21.48571428-14.17142857l17.37142858-20.11428572c7.31428571-10.51428571 21.48571429-35.65714286 20.11428571-48.91428571 0-4.11428571-2.74285714-11.42857143-8.68571429-10.51428572z" fill="#BA0C00" p-id="2568"></path><path d="M663.31428571 470.55238096c-119.77142857 0-218.97142857 99.2-218.97142857 219.42857142 0 120.68571429 98.28571429 218.97142857 218.97142857 218.51428572 120.68571429 0 218.51428571-97.37142857 218.51428572-218.97142857 0-120.22857143-98.28571429-218.97142857-218.51428572-218.97142857z m-111.54285714 235.88571428c-5.94285714 12.34285714-18.74285714 42.51428571-17.37142857 55.31428572 0 2.74285714 1.37142857 5.02857143 1.37142857 7.31428571 0.45714286 1.37142857-0.91428571 2.74285714-2.28571428 2.74285714-0.45714286 0-3.65714286-0.91428571-4.57142858-1.82857143-7.77142857-3.65714286-16.45714286-4.11428571-17.82857142-14.17142857-1.37142857-10.05714286 5.02857143-32.91428571 9.14285714-42.51428571 11.42857143-25.14285714 25.14285714-48 30.17142857-55.77142857h-0.91428571l-17.82857143 9.14285714c-0.45714286 0.45714286-4.11428571 2.74285714-5.02857143 2.74285714-2.28571429 0-2.28571429-2.74285714-2.28571429-4.57142857 0-5.94285714 3.65714286-7.77142857 7.77142857-11.42857143 5.94285714-4.57142857 26.51428571-20.11428571 32.45714286-20.57142857 5.02857143 0 10.51428571 10.05714286 10.51428572 12.8 1.82857143 5.48571429 1.82857143 5.02857143-23.31428572 60.8z m80.91428572 50.28571429c-18.74285714 3.65714286-31.08571429-12.8-33.82857143-30.17142857-2.28571429-22.4 9.14285714-48 22.4-65.82857143 15.08571429-20.57142857 43.88571429-39.31428571 56.68571428-40.68571429 7.77142857-0.45714286 18.74285714 7.77142857 19.2 12.34285714 0 2.28571429-4.57142857 2.74285714-5.94285714 4.57142858 9.6 1.37142857 11.42857143 11.42857143 12.34285714 19.2 4.11428571 36.57142857-24.68571429 92.8-70.85714285 100.57142857z m110.17142857-11.42857143c-17.82857143 3.65714286-30.17142857-13.71428571-32.45714286-30.17142857-2.28571429-22.4 9.14285714-48 22.4-65.82857143 15.08571429-21.48571429 43.88571429-40.22857143 55.77142857-41.6 7.77142857-0.45714286 18.74285714 7.77142857 19.2 12.34285714 0 2.28571429-4.57142857 2.74285714-5.94285714 4.57142857 9.6 1.37142857 11.42857143 11.42857143 12.34285714 19.2 4.57142857 37.48571429-24.22857143 92.8-71.31428571 101.48571429z" fill="#BA0C00" p-id="2569"></path><path d="M680.22857143 646.55238096c-5.02857143 0.45714286-9.14285714 8.68571429-11.42857143 8.68571428-1.37142857 0-2.28571429-2.28571429-2.28571429-3.65714286-32.91428571 23.77142857-45.71428571 53.48571429-44.34285714 74.51428572 0 3.65714286 2.28571429 15.08571429 7.77142857 14.17142857 5.94285714-0.45714286 17.37142857-10.05714286 21.48571429-14.17142857l17.37142857-20.11428572c7.31428571-10.51428571 21.48571429-35.65714286 20.11428571-48.91428571 0-4.11428571-2.74285714-11.42857143-8.68571428-10.51428571z" fill="#BA0C00" p-id="2570"></path></svg>