<?xml version="1.0" standalone="no"?><!DOCTYPE svg PUBLIC "-//W3C//DTD SVG 1.1//EN" "http://www.w3.org/Graphics/SVG/1.1/DTD/svg11.dtd"><svg t="1643076002862" class="icon" viewBox="0 0 1024 1024" version="1.1" xmlns="http://www.w3.org/2000/svg" p-id="12308" xmlns:xlink="http://www.w3.org/1999/xlink" width="200" height="200"><defs><style type="text/css"></style></defs><path d="M512 961.6c-60.7 0-119.6-11.9-175-35.3-53.5-22.6-101.6-55.1-142.9-96.3s-73.7-89.5-96.3-143c-23.4-55.4-35.3-114.3-35.3-175s11.9-119.6 35.3-175c22.6-53.5 55.1-101.6 96.3-142.9s89.4-73.7 142.9-96.3c55.4-23.4 114.3-35.3 175-35.3s119.6 11.9 175 35.3c53.5 22.6 101.6 55.1 142.9 96.3s73.7 89.4 96.3 142.9c23.4 55.4 35.3 114.3 35.3 175s-11.9 119.6-35.3 175c-22.6 53.5-55.1 101.6-96.3 142.9s-89.4 73.7-142.9 96.3c-55.4 23.5-114.3 35.4-175 35.4z m0-850c-54.1 0-106.5 10.6-155.9 31.5-47.7 20.2-90.5 49-127.3 85.8s-65.7 79.6-85.8 127.3c-20.9 49.4-31.5 101.8-31.5 155.9S122.1 618.6 143 668c20.2 47.7 49 90.5 85.8 127.3s79.6 65.7 127.3 85.8c49.4 20.9 101.8 31.5 155.9 31.5s106.5-10.6 155.9-31.5c47.7-20.2 90.5-49 127.3-85.8S860.9 715.7 881 668c20.9-49.4 31.5-101.8 31.5-155.9s-10.6-106.6-31.5-156c-20.2-47.7-49-90.5-85.8-127.3s-79.6-65.7-127.3-85.8c-49.4-20.9-101.8-31.4-155.9-31.4z m0 725.5c-86.8 0-168.5-33.8-229.9-95.2s-95.2-143-95.2-229.9 33.8-168.5 95.2-229.9 143-95.2 229.9-95.2 168.5 33.8 229.9 95.2 95.2 143 95.2 229.9-33.8 168.5-95.2 229.9-143.1 95.2-229.9 95.2z m0-601.1c-73.7 0-143 28.7-195.1 80.8C264.7 369 236 438.3 236 512s28.7 143 80.8 195.1C369 759.3 438.3 788 512 788s143-28.7 195.1-80.8S788 585.7 788 512s-28.7-143-80.8-195.1C655 264.7 585.7 236 512 236z" fill="#4867C8" p-id="12309"></path><path d="M512 643.6c-72.6 0-131.6-59.1-131.6-131.6s59-131.6 131.6-131.6 131.6 59 131.6 131.6-59 131.6-131.6 131.6z m0-214.1c-45.5 0-82.5 37-82.5 82.5s37 82.5 82.5 82.5 82.5-37 82.5-82.5-37-82.5-82.5-82.5z" fill="#4867C8" p-id="12310"></path><path d="M266 549.7h-77.1c-13.6 0-24.6-11-24.6-24.6s11-24.6 24.6-24.6H266c13.6 0 24.6 11 24.6 24.6s-11.1 24.6-24.6 24.6zM839.2 549.7h-77.1c-13.6 0-24.6-11-24.6-24.6s11-24.6 24.6-24.6h77.1c13.6 0 24.6 11 24.6 24.6s-11.1 24.6-24.6 24.6zM514 290.3c-13.6 0-24.6-11-24.6-24.6v-77.1c0-13.6 11-24.6 24.6-24.6s24.6 11 24.6 24.6v77.1c0 13.6-11 24.6-24.6 24.6zM514 863.5c-13.6 0-24.6-11-24.6-24.6v-77.1c0-13.6 11-24.6 24.6-24.6s24.6 11 24.6 24.6V839c0 13.5-11 24.5-24.6 24.5z" fill="#FF859F" p-id="12311"></path></svg>